<!DOCTYPE svg PUBLIC "-//W3C//DTD SVG 1.1//EN" "http://www.w3.org/Graphics/SVG/1.1/DTD/svg11.dtd">
<!-- Uploaded to: SVG Repo, www.svgrepo.com, Transformed by: SVG Repo Mixer Tools -->
<svg fill="#000000" width="189px" height="189px" viewBox="-5.12 -5.12 74.24 74.24" xmlns="http://www.w3.org/2000/svg" stroke="#000000" stroke-width="0.00064" transform="rotate(0)">
<g id="SVGRepo_bgCarrier" stroke-width="0" transform="translate(0,0), scale(1)">
<path transform="translate(-5.12, -5.12), scale(2.32)" d="M16,29.0954032430754C17.85297922729283,28.60010340322813,19.307427563618454,27.247408719467117,21.132718317690063,26.658199409262185C23.282309243999695,25.964305034303884,25.842937934827727,26.62304040645376,27.689439774009273,25.322017150715936C29.581951483080182,23.988575887343703,30.99955681052754,21.787884178800425,31.302496040526357,19.49269486313125C31.60405622064504,17.207953783402544,30.665461551625214,14.831379632239573,29.32114870440843,12.959534736837977C28.09494655023557,11.252149251553853,25.4391671642828,11.161154860794575,24.135003149558752,9.512551469752353C22.82335015763063,7.8544812071551116,23.574136474846085,4.997331275214793,21.9509239665851,3.6427790540109193C20.3903043530371,2.3404598855549477,17.97878966137129,2.2592693856469577,16,2.723984643378678C14.076848606172392,3.1756333522264755,12.99876609976938,5.21928157307228,11.258371134076532,6.1539062053048905C9.608754801430896,7.0397810145382405,7.601027219364514,7.015067939531214,6.051634233845842,8.066443038623348C4.253252603195153,9.286774925241442,1.6357578462469355,10.538980213826719,1.5939513184572505,12.711913396691042C1.5482411272560992,15.087743117727118,5.476336317828111,15.969662396091127,5.854442685493218,18.315657251087426C6.272991996257602,20.91258397220836,2.938645888136528,23.28896997602541,3.7042618063893347,25.805524006069504C4.384243935182907,28.040602621569743,7.093800361546583,29.203693866033753,9.350639422947783,29.8075395117735C11.53135801920969,30.391018170689865,13.81913805157058,29.678345867512814,16,29.0954032430754" fill="#7ed0ec" strokewidth="0"/>
</g>
<g id="SVGRepo_tracerCarrier" stroke-linecap="round" stroke-linejoin="round"/>
<g id="SVGRepo_iconCarrier"> <g data-name="40 shopping online" id="_40_shopping_online"> <path d="M54.41,45.24a1.02,1.02,0,1,1-1.02-1.02A1.024,1.024,0,0,1,54.41,45.24Z"/> <path d="M50.33,45.24a1.015,1.015,0,1,1-1.02-1.02A1.018,1.018,0,0,1,50.33,45.24Z"/> <path d="M58.5,40.68H55.41V17.19a3.009,3.009,0,0,0-3-3H11.59a3.009,3.009,0,0,0-3,3V40.68H5.5a2,2,0,0,0-2,2v1.13a6.011,6.011,0,0,0,6,6h45a6.011,6.011,0,0,0,6-6V42.68A2,2,0,0,0,58.5,40.68ZM10.59,17.19a1,1,0,0,1,1-1H52.41a1,1,0,0,1,1,1V40.68H10.59ZM38.53,42.68l-1.04,2.07H26.51l-1.04-2.07ZM58.5,43.81a4.005,4.005,0,0,1-4,4H9.5a4.005,4.005,0,0,1-4-4V42.68H23.23l1.76,3.52a1,1,0,0,0,.9.55H38.11a1,1,0,0,0,.9-.55l1.76-3.52H58.5Z"/> <path d="M43.2,26.42H40.16l-4.84-7.25a1,1,0,1,0-1.66,1.11l4.09,6.14H26.25l4.09-6.14a1,1,0,1,0-1.66-1.11l-4.84,7.25H20.8a1,1,0,1,0,0,2h.78l1.3,7.42a3.2,3.2,0,0,0,3.07,2.76h12.1a3.2,3.2,0,0,0,3.07-2.76l1.3-7.42h.78a1,1,0,0,0,0-2ZM39.15,35.5a1.212,1.212,0,0,1-1.1,1.1H25.95a1.212,1.212,0,0,1-1.1-1.1l-1.24-7.08H40.39Z"/> <path d="M32,35.546a1,1,0,0,0,1-1V30.473a1,1,0,0,0-2,0v4.073A1,1,0,0,0,32,35.546Z"/> <path d="M27.926,35.546a1,1,0,0,0,1-1V30.473a1,1,0,0,0-2,0v4.073A1,1,0,0,0,27.926,35.546Z"/> <path d="M36.074,35.546a1,1,0,0,0,1-1V30.473a1,1,0,0,0-2,0v4.073A1,1,0,0,0,36.074,35.546Z"/> </g> </g>
</svg>